<svg xmlns="http://www.w3.org/2000/svg" width="32" height="32" viewBox="0 0 24 24">
    <!-- Icon from Tabler Icons by Paweł Kuna - https://github.com/tabler/tabler-icons/blob/master/LICENSE -->
    <g fill="none" stroke="currentColor" stroke-linecap="round" stroke-linejoin="round" stroke-width="2">
        <path d="M5 11a7 7 0 0 1 14 0v7a1.78 1.78 0 0 1-3.1 1.4a1.65 1.65 0 0 0-2.6 0a1.65 1.65 0 0 1-2.6 0a1.65 1.65 0 0 0-2.6 0A1.78 1.78 0 0 1 5 18zm5-1h.01M14 10h.01"/>
        <path d="M10 14a3.5 3.5 0 0 0 4 0"/>
    </g>
    <style>
        path { stroke: #000; }
        @media (prefers-color-scheme: dark) {
            path { stroke: #FFF; }
        }
    </style>
</svg>